<svg width="320px" height="50px" xmlns="http://www.w3.org/2000/svg" viewBox="140 50 320 50" style="background: rgba(0, 0, 0, 0);" preserveAspectRatio="xMidYMid"><defs><filter id="editing-hole" x="-100%" y="-100%" width="300%" height="300%"><feFlood flood-color="#000" result="black"></feFlood><feMorphology operator="dilate" radius="2" in="SourceGraphic" result="erode"></feMorphology><feGaussianBlur in="erode" stdDeviation="4" result="blur"></feGaussianBlur><feOffset in="blur" dx="2" dy="2" result="offset"></feOffset><feComposite operator="atop" in="offset" in2="black" result="merge"></feComposite><feComposite operator="in" in="merge" in2="SourceGraphic" result="inner-shadow"></feComposite></filter></defs><g filter="url(#editing-hole)"><g transform="translate(139.52499270439148, 96.54500198364258)"><path d="M14.27-22.71L14.27-22.71L14.43-23.98L14.43-23.98Q14.43-25.87 12.96-26.40L12.96-26.40L12.96-26.40Q11.81-26.77 11.19-26.77L11.19-26.77L11.15-26.77L11.15-26.77Q9.92-26.77 9.02-26.38L9.02-26.38L9.02-26.38Q8.12-25.99 7.71-25.42L7.71-25.42L7.71-25.42Q6.85-24.23 6.72-22.92L6.72-22.92L6.72-22.92Q6.72-21.36 8.12-20.23L8.12-20.23L8.12-20.23Q9.51-19.11 11.50-18.27L11.50-18.27L11.50-18.27Q13.49-17.43 15.48-16.44L15.48-16.44L15.48-16.44Q17.47-15.46 18.86-13.61L18.86-13.61L18.86-13.61Q20.25-11.77 20.25-9.18L20.25-9.18L20.25-9.18Q20.25-4.14 17.08-1.64L17.08-1.64L17.08-1.64Q13.90 0.86 9.86 0.86L9.86 0.86L9.86 0.86Q5.82 0.86 3.18-0.96L3.18-0.96L3.18-0.96Q0.53-2.79 0.53-5.86L0.53-5.86L0.53-5.90L0.53-5.90Q0.53-7.42 1.00-8.55L1.00-8.55L1.00-8.55Q1.48-9.68 2.13-10.21L2.13-10.21L2.13-10.21Q3.49-11.32 4.59-11.40L4.59-11.40L5.08-11.44L5.08-11.44Q6.23-11.44 7.18-10.89L7.18-10.89L7.18-10.89Q8.12-10.33 8.12-9.35L8.12-9.35L8.12-9.35Q8.12-8.86 7.58-8.53L7.58-8.53L7.58-8.53Q7.05-8.20 6.66-7.54L6.66-7.54L6.66-7.54Q6.27-6.89 6.23-6.44L6.23-6.44L6.15-5.99L6.15-5.99Q6.15-3.49 8.45-2.67L8.45-2.67L8.45-2.67Q9.27-2.38 9.76-2.38L9.76-2.38L9.76-2.38Q12.01-2.38 13.39-3.73L13.39-3.73L13.39-3.73Q14.76-5.08 14.76-7.18L14.76-7.18L14.76-7.18Q14.76-9.68 12.63-11.23L12.63-11.23L12.63-11.23Q11.03-12.38 9.16-13.16L9.16-13.16L9.16-13.16Q7.30-13.94 6.64-14.27L6.64-14.27L6.64-14.27Q5.99-14.60 5.25-15.05L5.25-15.05L5.25-15.05Q4.51-15.50 3.61-16.32L3.61-16.32L3.61-16.32Q1.64-18.04 1.64-20.97L1.64-20.97L1.64-20.97Q1.64-23.90 3.24-25.91L3.24-25.91L3.24-25.91Q6.11-29.56 11.85-29.56L11.85-29.56L11.85-29.56Q14.88-29.56 16.97-28.39L16.97-28.39L16.97-28.39Q19.07-27.22 19.07-25.17L19.07-25.17L19.07-25.17Q19.07-23.70 18.22-22.71L18.22-22.71L18.22-22.71Q17.38-21.73 16.07-21.73L16.07-21.73L16.07-21.73Q15.46-21.73 14.86-21.98L14.86-21.98L14.86-21.98Q14.27-22.22 14.27-22.71ZM32.88-26.32L32.88-26.32L32.88-26.32Q31.41-26.32 30.42-25.26L30.42-25.26L30.42-25.26Q28.70-23.37 28.70-20.48L28.70-20.48L28.70-20.48Q28.70-17.59 30.18-17.02L30.18-17.02L30.18-17.02Q30.55-16.89 30.55-16.48L30.55-16.48L30.55-16.48Q30.55-15.25 29.73-14.41L29.73-14.41L29.73-14.41Q28.91-13.57 27.72-13.41L27.72-13.41L27.72-13.41Q27.35-13.41 27.35-13.12L27.35-13.12L27.35-13.12Q27.31-12.67 27.31-11.83L27.31-11.83L27.31-11.83Q27.31-10.99 27.39-9.98L27.39-9.98L27.39-9.98Q27.47-8.98 27.78-7.61L27.78-7.61L27.78-7.61Q28.09-6.23 28.60-5.23L28.60-5.23L28.60-5.23Q29.11-4.22 30.07-3.51L30.07-3.51L30.07-3.51Q31.04-2.79 32.57-2.79L32.57-2.79L32.57-2.79Q34.11-2.79 35.34-4.02L35.34-4.02L35.34-4.02Q36.57-5.25 37.06-7.22L37.06-7.22L37.06-7.22Q37.97-10.66 37.97-13.84L37.97-13.84L37.97-13.84Q37.97-17.02 37.56-19.43L37.56-19.43L37.56-19.43Q37.15-21.85 36.59-23.12L36.59-23.12L36.59-23.12Q36.04-24.39 35.26-25.17L35.26-25.17L35.26-25.17Q34.48-25.95 33.95-26.14L33.95-26.14L33.95-26.14Q33.41-26.32 32.88-26.32ZM25.42-22.26L25.42-22.26L25.58-22.51L25.58-22.51Q25.99-24.39 26.92-25.77L26.92-25.77L26.92-25.77Q27.84-27.14 28.76-27.82L28.76-27.82L28.76-27.82Q29.68-28.50 30.83-28.86L30.83-28.86L30.83-28.86Q32.35-29.36 33.50-29.36L33.50-29.36L33.50-29.36Q36.24-29.36 38.23-28.09L38.23-28.09L38.23-28.09Q40.22-26.81 41.25-24.64L41.25-24.64L41.25-24.64Q43.13-20.50 43.13-15.25L43.13-15.25L43.13-15.25Q43.13-6.44 39.03-2.42L39.03-2.42L39.03-2.42Q37.02-0.45 34.60 0.25L34.60 0.25L34.60 0.25Q33.09 0.70 31.69 0.70L31.69 0.70L31.69 0.70Q26.57 0.70 24.15-2.81L24.15-2.81L24.15-2.81Q21.73-6.31 21.73-11.69L21.73-11.69L21.73-11.69Q21.73-14.80 22.26-17.40L22.26-17.40L22.26-17.40Q22.80-20.01 23.37-21.07L23.37-21.07L23.90-22.14L23.90-22.14Q24.07-22.51 24.44-22.51L24.44-22.51L24.44-22.51Q24.80-22.51 24.99-22.45L24.99-22.45L24.99-22.45Q25.17-22.39 25.28-22.32L25.28-22.32L25.28-22.32Q25.38-22.26 25.42-22.26ZM56.58-0.04L56.58-0.04L54.24-0.08L54.24-0.08Q53.75-0.08 53.26-0.08L53.26-0.08L45.80 0.29L45.80 0.29Q45.18 0.29 45.18-0.12L45.18-0.12L45.18-0.12Q45.18-0.25 45.30-0.70L45.30-0.70L45.30-0.70Q45.71-1.64 45.90-6.68L45.90-6.68L45.90-6.68Q46.08-11.73 46.08-15.89L46.08-15.89L46.08-15.89Q46.08-20.05 45.92-22.63L45.92-22.63L45.92-22.63Q45.67-26.53 45.10-27.31L45.10-27.31L45.10-27.31Q44.65-27.88 44.65-28.04L44.65-28.04L44.65-28.04Q44.65-28.70 46.86-29.19L46.86-29.19L46.86-29.19Q49.08-29.68 50.04-29.68L50.04-29.68L50.04-29.68Q51.00-29.68 51.25-29.58L51.25-29.58L51.25-29.58Q51.50-29.48 51.50-29.15L51.50-29.15L51.50-29.15Q51.50-28.82 51.33-27.06L51.33-27.06L51.33-27.06Q50.92-21.85 50.92-14.94L50.92-14.94L50.92-14.94Q50.92-8.04 51.25-3.90L51.25-3.90L51.25-3.90Q51.25-3.44 52.03-3.12L52.03-3.12L52.03-3.12Q52.81-2.79 53.96-2.79L53.96-2.79L53.96-2.79Q57.97-2.79 57.97-8.98L57.97-8.98L57.97-8.98Q57.97-10.70 57.79-11.11L57.79-11.11L57.79-11.11Q57.60-11.52 57.60-11.64L57.60-11.64L57.60-11.64Q57.60-12.05 58.18-12.05L58.18-12.05L58.18-12.05Q58.63-12.05 59.39-11.60L59.39-11.60L59.39-11.60Q60.15-11.15 60.64-10.48L60.64-10.48L60.64-10.48Q61.13-9.80 61.54-8.34L61.54-8.34L61.54-8.34Q61.95-6.89 61.95-4.92L61.95-4.92L61.95-4.92Q61.95-0.04 60.76-0.04L60.76-0.04L60.76-0.04Q58.67-0.04 56.58-0.04ZM75.93-5.62L75.93-5.62L75.93-5.62Q75.93-3.85 75.26-2.54L75.26-2.54L75.26-2.54Q74.58-1.23 73.72-0.61L73.72-0.61L73.72-0.61Q72.86 0 71.67 0.37L71.67 0.37L71.67 0.37Q70.11 0.86 68.84 0.86L68.84 0.86L68.84 0.86Q66.17 0.86 64.41-0.18L64.41-0.18L64.41-0.18Q62.65-1.23 62.65-3.53L62.65-3.53L62.65-3.53Q62.65-4.88 63.39-5.74L63.39-5.74L63.39-5.74Q64.53-7.01 66.13-7.01L66.13-7.01L66.13-7.01Q66.63-7.01 66.63-6.56L66.63-6.56L66.63-6.56Q66.63-6.52 66.44-5.92L66.44-5.92L66.44-5.92Q66.26-5.33 66.26-4.43L66.26-4.43L66.26-4.43Q66.26-3.53 66.97-2.83L66.97-2.83L66.97-2.83Q67.69-2.13 68.72-2.13L68.72-2.13L68.72-2.13Q69.74-2.13 70.36-2.48L70.36-2.48L70.36-2.48Q70.97-2.83 71.22-3.36L71.22-3.36L71.22-3.36Q71.59-4.10 71.59-4.76L71.59-4.76L71.59-4.76Q71.59-5.95 70.40-6.81L70.40-6.81L70.40-6.81Q69.21-7.67 67.77-8.16L67.77-8.16L67.77-8.16Q66.34-8.65 65.15-9.80L65.15-9.80L65.15-9.80Q63.96-10.95 63.96-12.67L63.96-12.67L63.96-12.67Q63.96-15.62 65.83-17.10L65.83-17.10L65.83-17.10Q67.69-18.57 70.89-18.57L70.89-18.57L70.89-18.57Q72.28-18.57 73.82-18.18L73.82-18.18L73.82-18.18Q75.36-17.79 75.36-16.87L75.36-16.87L75.36-16.87Q75.36-15.95 75.05-15.17L75.05-15.17L75.05-15.17Q74.74-14.39 74.29-14.39L74.29-14.39L74.29-14.39Q74.05-14.39 73.96-14.58L73.96-14.58L73.96-14.58Q73.88-14.76 73.68-15.01L73.68-15.01L73.68-15.01Q73.47-15.25 72.69-15.64L72.69-15.64L72.69-15.64Q71.91-16.03 71.36-16.03L71.36-16.03L71.36-16.03Q70.81-16.03 70.62-16.01L70.62-16.01L70.62-16.01Q70.44-15.99 69.99-15.89L69.99-15.89L69.99-15.89Q69.54-15.79 69.17-15.58L69.17-15.58L69.17-15.58Q68.22-15.05 68.22-14.02L68.22-14.02L68.22-14.02Q68.22-13.37 68.51-13.06L68.51-13.06L68.51-13.06Q68.80-12.75 68.96-12.59L68.96-12.59L68.96-12.59Q69.13-12.42 69.54-12.20L69.54-12.20L69.54-12.20Q69.95-11.97 70.11-11.89L70.11-11.89L70.11-11.89Q70.27-11.81 70.85-11.54L70.85-11.54L70.85-11.54Q71.42-11.28 71.59-11.19L71.59-11.19L71.59-11.19Q75.93-9.14 75.93-5.62ZM76.96-15.99L76.96-15.99L77.08-17.63L77.08-17.63Q77.12-18.00 77.65-18.00L77.65-18.00L79.09-18.00L78.92-21.28L78.92-21.44L78.92-21.44Q78.92-22.39 80.36-23.25L80.36-23.25L80.36-23.25Q81.80-24.11 82.98-24.11L82.98-24.11L82.98-24.11Q83.35-24.11 83.35-23.78L83.35-23.78L83.35-23.74L83.35-23.74Q83.19-22.63 83.03-18.04L83.03-18.04L83.03-18.04Q84.83-18.04 85.32-18.12L85.32-18.12L85.32-18.12Q85.81-18.20 85.85-18.20L85.85-18.20L85.85-18.20Q86.14-18.20 86.14-17.71L86.14-17.71L86.14-17.71Q86.14-17.22 85.69-16.46L85.69-16.46L85.69-16.46Q85.24-15.70 84.71-15.66L84.71-15.66L82.98-15.66L82.98-15.66Q82.94-14.27 82.94-10.97L82.94-10.97L82.94-10.97Q82.94-7.67 83.00-5.54L83.00-5.54L83.00-5.54Q83.07-3.40 83.15-2.32L83.15-2.32L83.15-2.32Q83.23-1.23 83.33-0.57L83.33-0.57L83.33-0.57Q83.44 0.08 83.50 0.37L83.50 0.37L83.50 0.37Q83.56 0.66 83.56 0.74L83.56 0.74L83.56 0.74Q83.56 1.15 83.03 1.19L83.03 1.19L83.03 1.19Q81.43 1.19 79.85 0.74L79.85 0.74L79.85 0.74Q78.27 0.29 78.27-0.82L78.27-0.82L78.27-0.82Q79.13-7.71 79.13-15.62L79.13-15.62L79.13-15.62Q78.02-15.62 77.45-15.54L77.45-15.54L77.41-15.54L77.41-15.54Q77.04-15.54 76.96-15.99ZM100.45-12.30L100.45-12.30L100.37-7.05L100.37-7.05Q100.37-1.60 101.56-0.49L101.56-0.49L101.56-0.49Q101.72-0.33 101.72-0.12L101.72-0.12L101.72-0.12Q101.72 0.49 99.08 0.49L99.08 0.49L99.08 0.49Q96.43 0.49 96.27-1.07L96.27-1.07L96.27-1.07Q96.23-1.44 96.23-2.58L96.23-2.58L96.39-9.14L96.39-9.14Q96.39-9.43 96.06-9.43L96.06-9.43L96.06-9.43Q94.09-9.43 92.37-8.32L92.37-8.32L92.37-8.32Q90.65-7.22 90.65-5.49L90.65-5.49L90.65-5.49Q90.65-4.59 91.14-3.98L91.14-3.98L91.14-3.98Q91.63-3.36 92.35-3.36L92.35-3.36L92.35-3.36Q93.07-3.36 93.54-3.65L93.54-3.65L93.54-3.65Q94.01-3.94 94.09-3.98L94.09-3.98L94.09-3.98Q94.79-3.90 94.79-2.52L94.79-2.52L94.79-2.52Q94.79-1.15 93.52-0.31L93.52-0.31L93.52-0.31Q92.25 0.53 90.86 0.53L90.86 0.53L90.86 0.53Q89.46 0.53 88.46 0.04L88.46 0.04L88.46 0.04Q87.45-0.45 87.00-1.07L87.00-1.07L87.00-1.07Q86.55-1.68 86.26-2.46L86.26-2.46L86.26-2.46Q85.98-3.40 85.98-4.10L85.98-4.10L85.98-4.10Q85.98-6.97 87.78-8.69L87.78-8.69L87.78-8.69Q89.58-10.41 92.41-11.15L92.41-11.15L92.41-11.15Q96.14-11.89 96.31-12.51L96.31-12.51L96.31-12.51Q96.43-12.96 96.43-14.02L96.43-14.02L96.43-14.02Q96.43-16.20 94.22-16.20L94.22-16.20L94.22-16.20Q93.27-16.20 92.54-15.60L92.54-15.60L92.54-15.60Q91.80-15.01 91.80-14.10L91.80-14.10L92.05-13.12L92.05-13.12Q91.96-12.42 90.57-12.30L90.57-12.30L90.12-12.26L90.12-12.26Q88.89-12.26 88.17-12.87L88.17-12.87L88.17-12.87Q87.45-13.49 87.45-14.51L87.45-14.51L87.45-14.51Q87.45-15.17 87.88-15.97L87.88-15.97L87.88-15.97Q88.31-16.77 88.97-17.26L88.97-17.26L88.97-17.26Q89.63-17.75 91.00-18.14L91.00-18.14L91.00-18.14Q92.37-18.53 93.64-18.53L93.64-18.53L93.64-18.53Q94.91-18.53 95.61-18.45L95.61-18.45L95.61-18.45Q96.31-18.37 97.52-18.06L97.52-18.06L97.52-18.06Q98.73-17.75 99.53-16.89L99.53-16.89L99.53-16.89Q100.33-16.03 100.39-15.07L100.39-15.07L100.39-15.07Q100.45-14.10 100.45-12.30ZM111.81-13.28L111.81-13.28L111.81-13.28Q111.64-13.12 111.64-12.94L111.64-12.94L111.64-12.94Q111.64-12.75 112.40-12.59L112.40-12.59L112.40-12.59Q113.16-12.42 114.06-11.69L114.06-11.69L114.06-11.69Q114.96-10.95 115.42-10.09L115.42-10.09L115.42-10.09Q116.28-8.41 116.36-7.13L116.36-7.13L116.40-6.60L116.40-6.60Q116.60-1.80 118.16-0.04L118.16-0.04L118.16-0.04Q118.37 0.25 118.37 0.37L118.37 0.37L118.37 0.37Q118.37 0.82 117.22 0.82L117.22 0.82L117.22 0.82Q113.78 0.82 112.83-0.61L112.83-0.61L112.83-0.61Q112.34-1.19 112.34-4.18L112.34-4.18L112.34-5.21L112.34-5.21Q112.34-9.02 111.40-10.50L111.40-10.50L111.40-10.50Q110.91-11.19 110.19-11.19L110.19-11.19L110.19-11.19Q109.47-11.19 108.69-9.94L108.69-9.94L108.69-9.94Q107.91-8.69 107.91-7.83L107.91-7.83L107.91-7.83Q107.91-4.39 108.08-3.03L108.08-3.03L108.08-3.03Q108.24-1.68 108.24-1.64L108.24-1.64L108.24-1.64Q108.24-0.45 106.62 0.21L106.62 0.21L106.62 0.21Q105.00 0.86 103.57 0.86L103.57 0.86L103.57 0.86Q103.03 0.86 103.03 0.21L103.03 0.21L103.03 0.04L103.03 0.04Q104.02-5.00 104.02-15.87L104.02-15.87L104.02-15.87Q104.02-19.43 103.85-21.89L103.85-21.89L103.77-22.71L103.77-22.71Q103.69-23.86 103.30-24.68L103.30-24.68L103.30-24.68Q102.91-25.50 102.54-25.75L102.54-25.75L102.21-25.95L102.21-25.95Q101.93-26.12 101.93-26.32L101.93-26.32L101.93-26.32Q101.93-26.98 103.89-27.80L103.89-27.80L103.89-27.80Q105.86-28.62 107.30-28.62L107.30-28.62L107.30-28.62Q107.95-28.58 107.99-28.13L107.99-28.13L107.99-28.13Q108.20-26.49 108.20-21.38L108.20-21.38L108.20-21.38Q108.20-16.28 107.95-13.24L107.95-13.24L107.95-13.24Q107.95-12.75 108.12-12.75L108.12-12.75L108.12-12.75Q108.28-12.75 108.63-13.22L108.63-13.22L108.63-13.22Q108.98-13.69 109.86-14.72L109.86-14.72L109.86-14.72Q110.74-15.74 112.24-17.10L112.24-17.10L112.24-17.10Q113.73-18.45 114.66-18.45L114.66-18.45L114.66-18.45Q115.58-18.45 116.48-18.00L116.48-18.00L116.48-18.00Q117.38-17.55 117.38-17.14L117.38-17.14L116.93-16.85L116.93-16.85Q114.59-15.99 111.81-13.28ZM123.37-21.94L123.37-21.94L122.38-21.98L122.38-21.98Q121.28-21.98 120.95-21.44L120.95-21.44L120.95-21.44Q120.87-21.32 120.74-21.32L120.74-21.32L120.74-21.32Q120.21-21.32 120.21-23.14L120.21-23.14L120.21-23.14Q120.21-24.97 120.77-25.46L120.77-25.46L120.77-25.46Q121.32-25.95 122.69-25.95L122.69-25.95L122.69-25.95Q124.07-25.95 124.56-25.48L124.56-25.48L124.56-25.48Q125.05-25.01 125.05-23.90L125.05-23.90L125.05-23.90Q125.05-22.80 124.68-22.37L124.68-22.37L124.68-22.37Q124.31-21.94 123.37-21.94ZM120.09-1.23L120.09-1.23L120.54-10.78L120.54-10.78Q120.54-14.19 119.76-15.42L119.76-15.42L119.76-15.42Q119.52-15.83 119.19-16.03L119.19-16.03L119.19-16.03Q118.94-16.11 118.94-16.36L118.94-16.36L118.94-16.36Q118.94-17.10 121.03-17.79L121.03-17.79L121.03-17.79Q123.12-18.49 124.09-18.49L124.09-18.49L124.09-18.49Q125.05-18.49 125.09-18.00L125.09-18.00L125.09-18.00Q125.09-17.18 124.87-13.35L124.87-13.35L124.87-13.35Q124.64-9.51 124.64-5.29L124.64-5.29L124.64-5.29Q124.64-1.07 125.13-0.04L125.13-0.04L125.13-0.04Q125.25 0.16 125.25 0.37L125.25 0.37L125.25 0.37Q125.25 0.90 123.70 0.90L123.70 0.90L123.70 0.90Q122.14 0.90 120.50 0.08L120.50 0.08L120.50 0.08Q120.09-0.12 120.09-1.23ZM127.76 0.29L127.76 0.29L127.76 0.29Q128.49-4.14 128.49-10.33L128.49-10.33L128.49-10.33Q128.49-16.52 128.13-18.37L128.13-18.37L128.13-18.37Q128.13-18.90 129.35-18.90L129.35-18.90L129.35-18.90Q131.24-18.90 131.86-17.47L131.86-17.47L131.86-17.47Q131.90-17.34 132.06-17.34L132.06-17.34L132.06-17.34Q132.22-17.34 132.31-17.43L132.31-17.43L132.31-17.43Q133.58-18.74 136.24-18.74L136.24-18.74L136.24-18.74Q138.91-18.74 140.47-17.38L140.47-17.38L140.47-17.38Q142.02-16.03 142.02-13.45L142.02-13.45L142.02-13.45Q142.02-11.89 141.76-9.02L141.76-9.02L141.76-9.02Q141.49-6.15 141.49-4.76L141.49-4.76L141.49-4.76Q141.49-1.44 142.60 0.04L142.60 0.04L142.60 0.04Q142.76 0.25 142.76 0.45L142.76 0.45L142.76 0.45Q142.76 0.98 141.61 0.98L141.61 0.98L141.61 0.98Q136.53 0.98 136.53-3.53L136.53-3.53L136.53-3.53Q136.53-5.25 137.31-8.32L137.31-8.32L137.31-8.32Q138.09-11.40 138.09-13.00L138.09-13.00L138.09-13.00Q138.09-16.28 135.38-16.28L135.38-16.28L135.38-16.28Q134.07-16.28 133.39-15.50L133.39-15.50L133.39-15.50Q132.72-14.72 132.63-13.71L132.63-13.71L132.63-13.71Q132.55-12.71 132.55-9.92L132.55-9.92L132.55-9.92Q132.55-5.66 132.84-2.50L132.84-2.50L132.92-1.60L132.92-1.60Q132.92-0.45 131.43 0.18L131.43 0.18L131.43 0.18Q129.93 0.82 128.84 0.82L128.84 0.82L128.84 0.82Q127.76 0.82 127.76 0.29ZM146.82-16.54L146.82-16.54L146.82-16.54Q147.72-17.47 149.20-18.10L149.20-18.10L149.20-18.10Q150.67-18.74 152.03-18.74L152.03-18.74L152.03-18.74Q153.38-18.74 154.77-18.12L154.77-18.12L154.77-18.12Q154.94-18.12 155.02-18.20L155.02-18.20L155.02-18.20Q156.09-19.27 158.14-19.27L158.14-19.27L158.14-19.27Q158.63-19.27 158.63-18.82L158.63-18.82L158.63-18.82Q158.63-18.78 158.55-18.45L158.55-18.45L158.55-18.45Q158.47-18.12 158.34-17.49L158.34-17.49L158.34-17.49Q158.22-16.85 158.14-15.95L158.14-15.95L158.14-15.95Q157.85-13.61 157.83-10.78L157.83-10.78L157.83-10.78Q157.81-7.95 157.81-5.13L157.81-5.13L157.93 3.49L157.93 3.49Q157.93 7.63 155.80 10.37L155.80 10.37L155.80 10.37Q154.94 11.48 153.20 12.30L153.20 12.30L153.20 12.30Q151.45 13.12 149.12 13.12L149.12 13.12L149.12 13.12Q148.58 12.79 148.58 12.46L148.58 12.46L148.58 12.46Q148.58 12.14 149.03 11.93L149.03 11.93L149.03 11.93Q151.62 10.74 152.72 6.29L152.72 6.29L152.72 6.29Q153.83 1.84 153.83-7.22L153.83-7.22L153.75-12.96L153.63-15.74L153.63-15.74Q153.63-16.11 152.48-16.28L152.48-16.28L152.48-16.28Q151.00-16.28 150.00-15.31L150.00-15.31L150.00-15.31Q148.99-14.35 148.63-12.79L148.63-12.79L148.63-12.79Q147.97-10.29 147.97-8.47L147.97-8.47L147.97-8.47Q147.97-6.64 148.56-5.25L148.56-5.25L148.56-5.25Q149.16-3.85 150.63-3.85L150.63-3.85L150.63-3.85Q151.04-3.85 151.39-4.02L151.39-4.02L151.39-4.02Q151.74-4.18 151.86-4.18L151.86-4.18L151.86-4.18Q152.27-4.18 152.27-3.36L152.27-3.36L152.27-3.36Q152.27-2.54 152.15-2.03L152.15-2.03L152.15-2.03Q152.03-1.52 151.66-0.90L151.66-0.90L151.66-0.90Q150.84 0.45 148.46 0.45L148.46 0.45L148.46 0.45Q146.08 0.45 145.06-1.27L145.06-1.27L145.06-1.27Q143.99-3.03 143.83-4.43L143.83-4.43L143.83-4.43Q143.58-6.52 143.58-7.18L143.58-7.18L143.58-7.18Q143.58-7.83 143.60-8.22L143.60-8.22L143.60-8.22Q143.62-8.61 143.81-9.78L143.81-9.78L143.81-9.78Q143.99-10.95 144.30-11.99L144.30-11.99L144.30-11.99Q144.61-13.04 145.26-14.33L145.26-14.33L145.26-14.33Q145.92-15.62 146.82-16.54ZM171.05-29.19L171.05-29.19L176.96-28.86L176.96-28.86Q180.89-28.86 182.61-29.81L182.61-29.81L182.61-29.81Q182.86-29.97 183.04-29.97L183.04-29.97L183.04-29.97Q183.23-29.97 183.23-29.40L183.23-29.40L183.23-29.40Q183.23-28.82 182.53-27.51L182.53-27.51L182.53-27.51Q181.51-25.50 179.58-25.50L179.58-25.50L177.32-25.54L177.32-25.54Q177.00-25.54 176.91-25.17L176.91-25.17L176.91-25.17Q176.63-19.15 176.63-12.16L176.63-12.16L176.63-12.16Q176.63-5.17 177.20-1.64L177.20-1.64L177.20-1.44L177.20-1.44Q177.20-0.41 175.25 0.21L175.25 0.21L175.25 0.21Q173.31 0.82 171.59 0.82L171.59 0.82L171.59 0.82Q170.76 0.82 170.76 0.37L170.76 0.37L170.76 0.37Q170.76 0.25 170.89-0.21L170.89-0.21L170.89-0.21Q171.34-1.11 171.69-8.94L171.69-8.94L171.69-8.94Q172.04-16.77 172.04-20.75L172.04-20.75L171.95-25.21L171.95-25.21Q171.95-25.46 171.71-25.50L171.71-25.50L171.71-25.50Q170.85-25.67 169.74-25.67L169.74-25.67L169.74-25.67Q167.53-25.67 166.46-24.76L166.46-24.76L166.46-24.76Q166.17-24.56 165.91-24.56L165.91-24.56L165.91-24.56Q165.64-24.56 165.64-24.89L165.64-24.89L165.64-24.89Q165.64-25.38 166.15-26.24L166.15-26.24L166.15-26.24Q166.66-27.10 167.24-27.72L167.24-27.72L167.24-27.72Q168.63-29.19 171.05-29.19ZM184.95-15.46L184.95-15.46L184.95-15.46Q183.88-15.42 183.41-15.40L183.41-15.40L183.41-15.40Q182.94-15.38 182.94-15.62L182.94-15.62L182.94-15.62Q182.94-15.87 183.19-16.11L183.19-16.11L183.19-16.11Q185.81-18.53 192.04-18.53L192.04-18.53L192.04-18.53Q194.18-18.53 195.41-18.16L195.41-18.16L195.82-18.04L195.82-18.04Q196.31-17.84 196.31-17.59L196.31-17.59L196.31-17.59Q196.31-17.38 196.02-17.26L196.02-17.26L196.02-17.26Q194.91-16.93 193.89-16.22L193.89-16.22L193.89-16.22Q192.86-15.50 192.86-15.21L192.86-15.21L193.11-14.92L193.11-14.92Q194.42-14.19 195.14-12.59L195.14-12.59L195.14-12.59Q195.86-10.99 195.94-9.76L195.94-9.76L196.02-8.49L196.02-8.49Q196.02-4.43 193.77-1.80L193.77-1.80L193.77-1.80Q191.51 0.82 187.62 0.82L187.62 0.82L187.62 0.82Q185.65 0.82 184.21 0.12L184.21 0.12L184.21 0.12Q182.78-0.57 182.10-1.46L182.10-1.46L182.10-1.46Q181.43-2.34 181.02-3.44L181.02-3.44L181.02-3.44Q180.52-4.96 180.52-6.58L180.52-6.58L180.52-6.58Q180.52-8.20 181.08-9.84L181.08-9.84L181.08-9.84Q181.63-11.48 182.35-12.26L182.35-12.26L182.35-12.26Q183.06-13.04 183.97-13.53L183.97-13.53L183.97-13.53Q185.12-14.15 185.81-14.15L185.81-14.15L185.81-14.15Q186.51-14.15 186.51-13.86L186.51-13.86L186.26-13.45L186.26-13.45Q185.36-12.38 184.97-10.66L184.97-10.66L184.97-10.66Q184.58-8.94 184.58-7.61L184.58-7.61L184.58-7.61Q184.58-6.27 184.91-4.96L184.91-4.96L184.91-4.96Q185.24-3.65 185.65-3.01L185.65-3.01L185.65-3.01Q186.06-2.38 186.59-2.05L186.59-2.05L186.59-2.05Q187.37-1.56 188.23-1.56L188.23-1.56L188.23-1.56Q189.09-1.56 189.91-2.23L189.91-2.23L189.91-2.23Q190.73-2.91 191.10-4.02L191.10-4.02L191.10-4.02Q191.84-6.07 191.84-8.24L191.84-8.24L191.84-8.24Q191.84-11.69 190.10-13.57L190.10-13.57L190.10-13.57Q188.35-15.46 184.95-15.46ZM202.17-15.46L202.17-15.46L202.17-15.46Q201.10-15.42 200.63-15.40L200.63-15.40L200.63-15.40Q200.16-15.38 200.16-15.62L200.16-15.62L200.16-15.62Q200.16-15.87 200.41-16.11L200.41-16.11L200.41-16.11Q203.03-18.53 209.26-18.53L209.26-18.53L209.26-18.53Q211.40-18.53 212.63-18.16L212.63-18.16L213.04-18.04L213.04-18.04Q213.53-17.84 213.53-17.59L213.53-17.59L213.53-17.59Q213.53-17.38 213.24-17.26L213.24-17.26L213.24-17.26Q212.13-16.93 211.11-16.22L211.11-16.22L211.11-16.22Q210.08-15.50 210.08-15.21L210.08-15.21L210.33-14.92L210.33-14.92Q211.64-14.19 212.36-12.59L212.36-12.59L212.36-12.59Q213.08-10.99 213.16-9.76L213.16-9.76L213.24-8.49L213.24-8.49Q213.24-4.43 210.99-1.80L210.99-1.80L210.99-1.80Q208.73 0.82 204.84 0.82L204.84 0.82L204.84 0.82Q202.87 0.82 201.43 0.12L201.43 0.12L201.43 0.12Q200.00-0.57 199.32-1.46L199.32-1.46L199.32-1.46Q198.65-2.34 198.24-3.44L198.24-3.44L198.24-3.44Q197.74-4.96 197.74-6.58L197.74-6.58L197.74-6.58Q197.74-8.20 198.30-9.84L198.30-9.84L198.30-9.84Q198.85-11.48 199.57-12.26L199.57-12.26L199.57-12.26Q200.28-13.04 201.19-13.53L201.19-13.53L201.19-13.53Q202.34-14.15 203.03-14.15L203.03-14.15L203.03-14.15Q203.73-14.15 203.73-13.86L203.73-13.86L203.48-13.45L203.48-13.45Q202.58-12.38 202.19-10.66L202.19-10.66L202.19-10.66Q201.80-8.94 201.80-7.61L201.80-7.61L201.80-7.61Q201.80-6.27 202.13-4.96L202.13-4.96L202.13-4.96Q202.46-3.65 202.87-3.01L202.87-3.01L202.87-3.01Q203.28-2.38 203.81-2.05L203.81-2.05L203.81-2.05Q204.59-1.56 205.45-1.56L205.45-1.56L205.45-1.56Q206.31-1.56 207.13-2.23L207.13-2.23L207.13-2.23Q207.95-2.91 208.32-4.02L208.32-4.02L208.32-4.02Q209.06-6.07 209.06-8.24L209.06-8.24L209.06-8.24Q209.06-11.69 207.32-13.57L207.32-13.57L207.32-13.57Q205.57-15.46 202.17-15.46ZM220.09-23.45L220.09-23.45L219.84-8.41L219.84-8.41Q219.84-1.35 220.29 0.04L220.29 0.04L220.29 0.04Q220.42 0.29 220.42 0.53L220.42 0.53L220.42 0.53Q220.42 1.03 219.23 1.03L219.23 1.03L219.23 1.03Q218.04 1.03 216.58 0.43L216.58 0.43L216.58 0.43Q215.13-0.16 215.13-1.11L215.13-1.11L215.13-1.11Q215.95-6.85 215.95-16.44L215.95-16.44L215.78-22.71L215.78-22.71Q215.70-23.86 215.31-24.68L215.31-24.68L215.31-24.68Q214.92-25.50 214.55-25.75L214.55-25.75L214.22-25.95L214.22-25.95Q213.94-26.12 213.94-26.32L213.94-26.32L213.94-26.32Q213.94-26.90 215.72-27.74L215.72-27.74L215.72-27.74Q217.50-28.58 219.19-28.58L219.19-28.58L219.19-28.58Q219.84-28.58 219.92-28.13L219.92-28.13L219.92-28.13Q220.09-27.06 220.09-23.45Z" fill="#ccc"></path></g></g><style>text {
  font-size: 64px;
  font-family: Arial Black;
  dominant-baseline: central;
  text-anchor: middle;
}</style></svg>