<svg width="320px" height="50px" xmlns="http://www.w3.org/2000/svg" viewBox="140 50 320 50" style="background: rgba(0, 0, 0, 0);" preserveAspectRatio="xMidYMid"><defs><filter id="editing-hole" x="-100%" y="-100%" width="300%" height="300%"><feFlood flood-color="#000" result="black"></feFlood><feMorphology operator="dilate" radius="2" in="SourceGraphic" result="erode"></feMorphology><feGaussianBlur in="erode" stdDeviation="4" result="blur"></feGaussianBlur><feOffset in="blur" dx="2" dy="2" result="offset"></feOffset><feComposite operator="atop" in="offset" in2="black" result="merge"></feComposite><feComposite operator="in" in="merge" in2="SourceGraphic" result="inner-shadow"></feComposite></filter></defs><g filter="url(#editing-hole)"><g transform="translate(137.81498169898987, 95.55852890014648)"><path d="M13.57-21.61L13.57-21.61L13.73-22.82L13.73-22.82Q13.73-24.61 12.32-25.12L12.32-25.12L12.32-25.12Q11.23-25.47 10.65-25.47L10.65-25.47L10.61-25.47L10.61-25.47Q9.44-25.47 8.58-25.10L8.58-25.10L8.58-25.10Q7.72-24.73 7.33-24.18L7.33-24.18L7.33-24.18Q6.51-23.05 6.40-21.80L6.40-21.80L6.40-21.80Q6.40-20.32 7.72-19.25L7.72-19.25L7.72-19.25Q9.05-18.17 10.94-17.37L10.94-17.37L10.94-17.37Q12.83-16.57 14.72-15.64L14.72-15.64L14.72-15.64Q16.61-14.70 17.94-12.95L17.94-12.95L17.94-12.95Q19.27-11.19 19.27-8.74L19.27-8.74L19.27-8.74Q19.27-3.94 16.24-1.56L16.24-1.56L16.24-1.56Q13.22 0.82 9.38 0.82L9.38 0.82L9.38 0.82Q5.54 0.82 3.02-0.92L3.02-0.92L3.02-0.92Q0.51-2.65 0.51-5.58L0.51-5.58L0.51-5.62L0.51-5.62Q0.51-7.06 0.96-8.13L0.96-8.13L0.96-8.13Q1.40-9.20 2.03-9.71L2.03-9.71L2.03-9.71Q3.31-10.76 4.37-10.84L4.37-10.84L4.84-10.88L4.84-10.88Q5.93-10.88 6.83-10.35L6.83-10.35L6.83-10.35Q7.72-9.83 7.72-8.89L7.72-8.89L7.72-8.89Q7.72-8.42 7.21-8.11L7.21-8.11L7.21-8.11Q6.71-7.80 6.34-7.18L6.34-7.18L6.34-7.18Q5.97-6.55 5.93-6.12L5.93-6.12L5.85-5.69L5.85-5.69Q5.85-3.31 8.03-2.54L8.03-2.54L8.03-2.54Q8.81-2.26 9.28-2.26L9.28-2.26L9.28-2.26Q11.43-2.26 12.73-3.55L12.73-3.55L12.73-3.55Q14.04-4.84 14.04-6.83L14.04-6.83L14.04-6.83Q14.04-9.20 12.01-10.69L12.01-10.69L12.01-10.69Q10.49-11.78 8.72-12.52L8.72-12.52L8.72-12.52Q6.94-13.26 6.32-13.57L6.32-13.57L6.32-13.57Q5.69-13.88 4.99-14.31L4.99-14.31L4.99-14.31Q4.29-14.74 3.43-15.52L3.43-15.52L3.43-15.52Q1.56-17.16 1.56-19.95L1.56-19.95L1.56-19.95Q1.56-22.74 3.08-24.65L3.08-24.65L3.08-24.65Q5.81-28.12 11.27-28.12L11.27-28.12L11.27-28.12Q14.16-28.12 16.15-27.01L16.15-27.01L16.15-27.01Q18.14-25.90 18.14-23.95L18.14-23.95L18.14-23.95Q18.14-22.54 17.34-21.61L17.34-21.61L17.34-21.61Q16.54-20.67 15.29-20.67L15.29-20.67L15.29-20.67Q14.70-20.67 14.14-20.90L14.14-20.90L14.14-20.90Q13.57-21.14 13.57-21.61ZM31.28-25.04L31.28-25.04L31.28-25.04Q29.87-25.04 28.94-24.02L28.94-24.02L28.94-24.02Q27.30-22.23 27.30-19.48L27.30-19.48L27.30-19.48Q27.30-16.73 28.70-16.18L28.70-16.18L28.70-16.18Q29.05-16.07 29.05-15.68L29.05-15.68L29.05-15.68Q29.05-14.51 28.27-13.71L28.27-13.71L28.27-13.71Q27.50-12.91 26.36-12.75L26.36-12.75L26.36-12.75Q26.01-12.75 26.01-12.48L26.01-12.48L26.01-12.48Q25.97-12.05 25.97-11.25L25.97-11.25L25.97-11.25Q25.97-10.45 26.05-9.50L26.05-9.50L26.05-9.50Q26.13-8.54 26.42-7.23L26.42-7.23L26.42-7.23Q26.71-5.93 27.20-4.97L27.20-4.97L27.20-4.97Q27.69-4.02 28.61-3.33L28.61-3.33L28.61-3.33Q29.52-2.65 30.99-2.65L30.99-2.65L30.99-2.65Q32.45-2.65 33.62-3.82L33.62-3.82L33.62-3.82Q34.79-4.99 35.26-6.86L35.26-6.86L35.26-6.86Q36.11-10.14 36.11-13.16L36.11-13.16L36.11-13.16Q36.11-16.18 35.72-18.49L35.72-18.49L35.72-18.49Q35.33-20.79 34.81-22.00L34.81-22.00L34.81-22.00Q34.28-23.20 33.54-23.95L33.54-23.95L33.54-23.95Q32.80-24.69 32.29-24.86L32.29-24.86L32.29-24.86Q31.79-25.04 31.28-25.04ZM24.18-21.18L24.18-21.18L24.34-21.41L24.34-21.41Q24.73-23.20 25.60-24.51L25.60-24.51L25.60-24.51Q26.48-25.82 27.36-26.46L27.36-26.46L27.36-26.46Q28.24-27.11 29.33-27.46L29.33-27.46L29.33-27.46Q30.77-27.92 31.86-27.92L31.86-27.92L31.86-27.92Q34.48-27.92 36.37-26.71L36.37-26.71L36.37-26.71Q38.26-25.51 39.23-23.44L39.23-23.44L39.23-23.44Q41.03-19.50 41.03-14.51L41.03-14.51L41.03-14.51Q41.03-6.12 37.13-2.30L37.13-2.30L37.13-2.30Q35.22-0.43 32.92 0.23L32.92 0.23L32.92 0.23Q31.47 0.66 30.15 0.66L30.15 0.66L30.15 0.66Q25.27 0.66 22.97-2.67L22.97-2.67L22.97-2.67Q20.67-6.01 20.67-11.12L20.67-11.12L20.67-11.12Q20.67-14.08 21.18-16.56L21.18-16.56L21.18-16.56Q21.68-19.03 22.23-20.05L22.23-20.05L22.74-21.06L22.74-21.06Q22.89-21.41 23.24-21.41L23.24-21.41L23.24-21.41Q23.59-21.41 23.77-21.35L23.77-21.35L23.77-21.35Q23.95-21.29 24.04-21.24L24.04-21.24L24.04-21.24Q24.14-21.18 24.18-21.18ZM53.82-0.04L53.82-0.04L51.60-0.08L51.60-0.08Q51.13-0.08 50.66-0.08L50.66-0.08L43.56 0.27L43.56 0.27Q42.98 0.27 42.98-0.12L42.98-0.12L42.98-0.12Q42.98-0.23 43.09-0.66L43.09-0.66L43.09-0.66Q43.48-1.56 43.66-6.36L43.66-6.36L43.66-6.36Q43.84-11.15 43.84-15.11L43.84-15.11L43.84-15.11Q43.84-19.07 43.68-21.53L43.68-21.53L43.68-21.53Q43.45-25.23 42.90-25.97L42.90-25.97L42.90-25.97Q42.47-26.52 42.47-26.68L42.47-26.68L42.47-26.68Q42.47-27.30 44.58-27.77L44.58-27.77L44.58-27.77Q46.68-28.24 47.60-28.24L47.60-28.24L47.60-28.24Q48.52-28.24 48.75-28.14L48.75-28.14L48.75-28.14Q48.98-28.04 48.98-27.73L48.98-27.73L48.98-27.73Q48.98-27.42 48.83-25.74L48.83-25.74L48.83-25.74Q48.44-20.79 48.44-14.22L48.44-14.22L48.44-14.22Q48.44-7.64 48.75-3.71L48.75-3.71L48.75-3.71Q48.75-3.28 49.49-2.96L49.49-2.96L49.49-2.96Q50.23-2.65 51.32-2.65L51.32-2.65L51.32-2.65Q55.15-2.65 55.15-8.54L55.15-8.54L55.15-8.54Q55.15-10.18 54.97-10.57L54.97-10.57L54.97-10.57Q54.80-10.96 54.80-11.08L54.80-11.08L54.80-11.08Q54.80-11.47 55.34-11.47L55.34-11.47L55.34-11.47Q55.77-11.47 56.49-11.04L56.49-11.04L56.49-11.04Q57.21-10.61 57.68-9.96L57.68-9.96L57.68-9.96Q58.15-9.32 58.54-7.94L58.54-7.94L58.54-7.94Q58.93-6.55 58.93-4.68L58.93-4.68L58.93-4.68Q58.93-0.04 57.80-0.04L57.80-0.04L57.80-0.04Q55.81-0.04 53.82-0.04ZM72.23-5.34L72.23-5.34L72.23-5.34Q72.23-3.67 71.58-2.42L71.58-2.42L71.58-2.42Q70.94-1.17 70.12-0.58L70.12-0.58L70.12-0.58Q69.30 0 68.17 0.35L68.17 0.35L68.17 0.35Q66.69 0.82 65.48 0.82L65.48 0.82L65.48 0.82Q62.95 0.82 61.27-0.18L61.27-0.18L61.27-0.18Q59.59-1.17 59.59-3.35L59.59-3.35L59.59-3.35Q59.59-4.64 60.29-5.46L60.29-5.46L60.29-5.46Q61.39-6.67 62.91-6.67L62.91-6.67L62.91-6.67Q63.38-6.67 63.38-6.24L63.38-6.24L63.38-6.24Q63.38-6.20 63.20-5.64L63.20-5.64L63.20-5.64Q63.02-5.07 63.02-4.21L63.02-4.21L63.02-4.21Q63.02-3.35 63.71-2.69L63.71-2.69L63.71-2.69Q64.39-2.03 65.36-2.03L65.36-2.03L65.36-2.03Q66.34-2.03 66.92-2.36L66.92-2.36L66.92-2.36Q67.51-2.69 67.74-3.20L67.74-3.20L67.74-3.20Q68.09-3.90 68.09-4.52L68.09-4.52L68.09-4.52Q68.09-5.66 66.96-6.47L66.96-6.47L66.96-6.47Q65.83-7.29 64.47-7.76L64.47-7.76L64.47-7.76Q63.10-8.23 61.97-9.32L61.97-9.32L61.97-9.32Q60.84-10.41 60.84-12.05L60.84-12.05L60.84-12.05Q60.84-14.86 62.61-16.26L62.61-16.26L62.61-16.26Q64.39-17.67 67.43-17.67L67.43-17.67L67.43-17.67Q68.76-17.67 70.22-17.30L70.22-17.30L70.22-17.30Q71.68-16.93 71.68-16.05L71.68-16.05L71.68-16.05Q71.68-15.17 71.39-14.43L71.39-14.43L71.39-14.43Q71.10-13.69 70.67-13.69L70.67-13.69L70.67-13.69Q70.43-13.69 70.36-13.86L70.36-13.86L70.36-13.86Q70.28-14.04 70.08-14.27L70.08-14.27L70.08-14.27Q69.89-14.51 69.15-14.88L69.15-14.88L69.15-14.88Q68.41-15.25 67.88-15.25L67.88-15.25L67.88-15.25Q67.35-15.25 67.18-15.23L67.18-15.23L67.18-15.23Q67.00-15.21 66.57-15.11L66.57-15.11L66.57-15.11Q66.14-15.02 65.79-14.82L65.79-14.82L65.79-14.82Q64.90-14.31 64.90-13.34L64.90-13.34L64.90-13.34Q64.90-12.71 65.17-12.42L65.17-12.42L65.17-12.42Q65.44-12.13 65.60-11.97L65.60-11.97L65.60-11.97Q65.75-11.82 66.14-11.60L66.14-11.60L66.14-11.60Q66.53-11.39 66.69-11.31L66.69-11.31L66.69-11.31Q66.85-11.23 67.39-10.98L67.39-10.98L67.39-10.98Q67.94-10.72 68.09-10.65L68.09-10.65L68.09-10.65Q72.23-8.70 72.23-5.34ZM73.20-15.21L73.20-15.21L73.32-16.77L73.32-16.77Q73.36-17.12 73.87-17.12L73.87-17.12L75.23-17.12L75.07-20.24L75.07-20.40L75.07-20.40Q75.07-21.29 76.44-22.11L76.44-22.11L76.44-22.11Q77.80-22.93 78.94-22.93L78.94-22.93L78.94-22.93Q79.29-22.93 79.29-22.62L79.29-22.62L79.29-22.58L79.29-22.58Q79.13-21.53 78.97-17.16L78.97-17.16L78.97-17.16Q80.69-17.16 81.16-17.24L81.16-17.24L81.16-17.24Q81.63-17.32 81.67-17.32L81.67-17.32L81.67-17.32Q81.94-17.32 81.94-16.85L81.94-16.85L81.94-16.85Q81.94-16.38 81.51-15.66L81.51-15.66L81.51-15.66Q81.08-14.94 80.57-14.90L80.57-14.90L78.94-14.90L78.94-14.90Q78.90-13.57 78.90-10.43L78.90-10.43L78.90-10.43Q78.90-7.29 78.96-5.26L78.96-5.26L78.96-5.26Q79.01-3.24 79.09-2.20L79.09-2.20L79.09-2.20Q79.17-1.17 79.27-0.55L79.27-0.55L79.27-0.55Q79.36 0.08 79.42 0.35L79.42 0.35L79.42 0.35Q79.48 0.62 79.48 0.70L79.48 0.70L79.48 0.70Q79.48 1.09 78.97 1.13L78.97 1.13L78.97 1.13Q77.45 1.13 75.95 0.70L75.95 0.70L75.95 0.70Q74.45 0.27 74.45-0.78L74.45-0.78L74.45-0.78Q75.27-7.33 75.27-14.86L75.27-14.86L75.27-14.86Q74.22-14.86 73.67-14.78L73.67-14.78L73.63-14.78L73.63-14.78Q73.28-14.78 73.20-15.21ZM95.55-11.70L95.55-11.70L95.47-6.71L95.47-6.71Q95.47-1.52 96.60-0.47L96.60-0.47L96.60-0.47Q96.76-0.31 96.76-0.12L96.76-0.12L96.76-0.12Q96.76 0.47 94.24 0.47L94.24 0.47L94.24 0.47Q91.73 0.47 91.57-1.01L91.57-1.01L91.57-1.01Q91.53-1.36 91.53-2.46L91.53-2.46L91.69-8.70L91.69-8.70Q91.69-8.97 91.38-8.97L91.38-8.97L91.38-8.97Q89.50-8.97 87.87-7.92L87.87-7.92L87.87-7.92Q86.23-6.86 86.23-5.23L86.23-5.23L86.23-5.23Q86.23-4.37 86.70-3.78L86.70-3.78L86.70-3.78Q87.16-3.20 87.85-3.20L87.85-3.20L87.85-3.20Q88.53-3.20 88.98-3.47L88.98-3.47L88.98-3.47Q89.43-3.74 89.50-3.78L89.50-3.78L89.50-3.78Q90.17-3.71 90.17-2.40L90.17-2.40L90.17-2.40Q90.17-1.09 88.96-0.29L88.96-0.29L88.96-0.29Q87.75 0.51 86.42 0.51L86.42 0.51L86.42 0.51Q85.10 0.51 84.14 0.04L84.14 0.04L84.14 0.04Q83.19-0.43 82.76-1.01L82.76-1.01L82.76-1.01Q82.33-1.60 82.06-2.34L82.06-2.34L82.06-2.34Q81.78-3.24 81.78-3.90L81.78-3.90L81.78-3.90Q81.78-6.63 83.50-8.27L83.50-8.27L83.50-8.27Q85.22-9.91 87.91-10.61L87.91-10.61L87.91-10.61Q91.45-11.31 91.61-11.89L91.61-11.89L91.61-11.89Q91.73-12.32 91.73-13.34L91.73-13.34L91.73-13.34Q91.73-15.40 89.62-15.40L89.62-15.40L89.62-15.40Q88.72-15.40 88.02-14.84L88.02-14.84L88.02-14.84Q87.32-14.27 87.32-13.42L87.32-13.42L87.55-12.48L87.55-12.48Q87.48-11.82 86.15-11.70L86.15-11.70L85.72-11.66L85.72-11.66Q84.55-11.66 83.87-12.25L83.87-12.25L83.87-12.25Q83.19-12.83 83.19-13.81L83.19-13.81L83.19-13.81Q83.19-14.43 83.60-15.19L83.60-15.19L83.60-15.19Q84.01-15.95 84.63-16.42L84.63-16.42L84.63-16.42Q85.25-16.89 86.56-17.26L86.56-17.26L86.56-17.26Q87.87-17.63 89.08-17.63L89.08-17.63L89.08-17.63Q90.28-17.63 90.95-17.55L90.95-17.55L90.95-17.55Q91.61-17.47 92.76-17.18L92.76-17.18L92.76-17.18Q93.91-16.89 94.67-16.07L94.67-16.07L94.67-16.07Q95.43-15.25 95.49-14.33L95.49-14.33L95.49-14.33Q95.55-13.42 95.55-11.70ZM106.35-12.64L106.35-12.64L106.35-12.64Q106.20-12.48 106.20-12.30L106.20-12.30L106.20-12.30Q106.20-12.13 106.92-11.97L106.92-11.97L106.92-11.97Q107.64-11.82 108.50-11.12L108.50-11.12L108.50-11.12Q109.36-10.41 109.78-9.59L109.78-9.59L109.78-9.59Q110.60-8.00 110.68-6.79L110.68-6.79L110.72-6.28L110.72-6.28Q110.92-1.72 112.40-0.04L112.40-0.04L112.40-0.04Q112.59 0.23 112.59 0.35L112.59 0.35L112.59 0.35Q112.59 0.78 111.50 0.78L111.50 0.78L111.50 0.78Q108.22 0.78 107.33-0.58L107.33-0.58L107.33-0.58Q106.86-1.13 106.86-3.98L106.86-3.98L106.86-4.95L106.86-4.95Q106.86-8.58 105.96-9.98L105.96-9.98L105.96-9.98Q105.50-10.65 104.81-10.65L104.81-10.65L104.81-10.65Q104.13-10.65 103.39-9.46L103.39-9.46L103.39-9.46Q102.65-8.27 102.65-7.45L102.65-7.45L102.65-7.45Q102.65-4.17 102.80-2.89L102.80-2.89L102.80-2.89Q102.96-1.60 102.96-1.56L102.96-1.56L102.96-1.56Q102.96-0.43 101.42 0.20L101.42 0.20L101.42 0.20Q99.88 0.82 98.51 0.82L98.51 0.82L98.51 0.82Q98.01 0.82 98.01 0.20L98.01 0.20L98.01 0.04L98.01 0.04Q98.94-4.76 98.94-15.09L98.94-15.09L98.94-15.09Q98.94-18.49 98.79-20.83L98.79-20.83L98.71-21.61L98.71-21.61Q98.63-22.70 98.26-23.48L98.26-23.48L98.26-23.48Q97.89-24.26 97.54-24.49L97.54-24.49L97.23-24.69L97.23-24.69Q96.95-24.84 96.95-25.04L96.95-25.04L96.95-25.04Q96.95-25.66 98.83-26.44L98.83-26.44L98.83-26.44Q100.70-27.22 102.06-27.22L102.06-27.22L102.06-27.22Q102.69-27.18 102.73-26.75L102.73-26.75L102.73-26.75Q102.92-25.19 102.92-20.34L102.92-20.34L102.92-20.34Q102.92-15.48 102.69-12.60L102.69-12.60L102.69-12.60Q102.69-12.13 102.84-12.13L102.84-12.13L102.84-12.13Q103.00-12.13 103.33-12.58L103.33-12.58L103.33-12.58Q103.66-13.03 104.50-14.00L104.50-14.00L104.50-14.00Q105.34-14.98 106.76-16.26L106.76-16.26L106.76-16.26Q108.19-17.55 109.06-17.55L109.06-17.55L109.06-17.55Q109.94-17.55 110.80-17.12L110.80-17.12L110.80-17.12Q111.66-16.69 111.66-16.30L111.66-16.30L111.23-16.03L111.23-16.03Q109.00-15.21 106.35-12.64ZM117.35-20.86L117.35-20.86L116.42-20.90L116.42-20.90Q115.36-20.90 115.05-20.40L115.05-20.40L115.05-20.40Q114.97-20.28 114.86-20.28L114.86-20.28L114.86-20.28Q114.35-20.28 114.35-22.02L114.35-22.02L114.35-22.02Q114.35-23.75 114.87-24.22L114.87-24.22L114.87-24.22Q115.40-24.69 116.71-24.69L116.71-24.69L116.71-24.69Q118.01-24.69 118.48-24.24L118.48-24.24L118.48-24.24Q118.95-23.79 118.95-22.74L118.95-22.74L118.95-22.74Q118.95-21.68 118.60-21.27L118.60-21.27L118.60-21.27Q118.25-20.86 117.35-20.86ZM114.23-1.17L114.23-1.17L114.66-10.26L114.66-10.26Q114.66-13.49 113.92-14.66L113.92-14.66L113.92-14.66Q113.69-15.05 113.37-15.25L113.37-15.25L113.37-15.25Q113.14-15.33 113.14-15.56L113.14-15.56L113.14-15.56Q113.14-16.26 115.13-16.93L115.13-16.93L115.13-16.93Q117.12-17.59 118.03-17.59L118.03-17.59L118.03-17.59Q118.95-17.59 118.99-17.12L118.99-17.12L118.99-17.12Q118.99-16.34 118.77-12.69L118.77-12.69L118.77-12.69Q118.56-9.05 118.56-5.03L118.56-5.03L118.56-5.03Q118.56-1.01 119.03-0.04L119.03-0.04L119.03-0.04Q119.14 0.16 119.14 0.35L119.14 0.35L119.14 0.35Q119.14 0.86 117.66 0.86L117.66 0.86L117.66 0.86Q116.18 0.86 114.62 0.08L114.62 0.08L114.62 0.08Q114.23-0.12 114.23-1.17ZM121.52 0.27L121.52 0.27L121.52 0.27Q122.23-3.94 122.23-9.83L122.23-9.83L122.23-9.83Q122.23-15.72 121.88-17.47L121.88-17.47L121.88-17.47Q121.88-17.98 123.05-17.98L123.05-17.98L123.05-17.98Q124.84-17.98 125.42-16.61L125.42-16.61L125.42-16.61Q125.46-16.50 125.62-16.50L125.62-16.50L125.62-16.50Q125.78-16.50 125.85-16.57L125.85-16.57L125.85-16.57Q127.06-17.82 129.60-17.82L129.60-17.82L129.60-17.82Q132.13-17.82 133.61-16.54L133.61-16.54L133.61-16.54Q135.10-15.25 135.10-12.79L135.10-12.79L135.10-12.79Q135.10-11.31 134.84-8.58L134.84-8.58L134.84-8.58Q134.59-5.85 134.59-4.52L134.59-4.52L134.59-4.52Q134.59-1.36 135.64 0.04L135.64 0.04L135.64 0.04Q135.80 0.23 135.80 0.43L135.80 0.43L135.80 0.43Q135.80 0.94 134.71 0.94L134.71 0.94L134.71 0.94Q129.87 0.94 129.87-3.35L129.87-3.35L129.87-3.35Q129.87-4.99 130.61-7.92L130.61-7.92L130.61-7.92Q131.35-10.84 131.35-12.36L131.35-12.36L131.35-12.36Q131.35-15.48 128.78-15.48L128.78-15.48L128.78-15.48Q127.53-15.48 126.89-14.74L126.89-14.74L126.89-14.74Q126.24-14.00 126.16-13.05L126.16-13.05L126.16-13.05Q126.09-12.09 126.09-9.44L126.09-9.44L126.09-9.44Q126.09-5.38 126.36-2.38L126.36-2.38L126.44-1.52L126.44-1.52Q126.44-0.43 125.01 0.18L125.01 0.18L125.01 0.18Q123.59 0.78 122.56 0.78L122.56 0.78L122.56 0.78Q121.52 0.78 121.52 0.27ZM139.66-15.74L139.66-15.74L139.66-15.74Q140.52-16.61 141.92-17.22L141.92-17.22L141.92-17.22Q143.32-17.82 144.61-17.82L144.61-17.82L144.61-17.82Q145.90-17.82 147.22-17.24L147.22-17.24L147.22-17.24Q147.38-17.24 147.46-17.32L147.46-17.32L147.46-17.32Q148.47-18.33 150.42-18.33L150.42-18.33L150.42-18.33Q150.89-18.33 150.89-17.90L150.89-17.90L150.89-17.90Q150.89-17.86 150.81-17.55L150.81-17.55L150.81-17.55Q150.73-17.24 150.62-16.63L150.62-16.63L150.62-16.63Q150.50-16.03 150.42-15.17L150.42-15.17L150.42-15.17Q150.15-12.95 150.13-10.26L150.13-10.26L150.13-10.26Q150.11-7.57 150.11-4.88L150.11-4.88L150.23 3.31L150.23 3.31Q150.23 7.25 148.20 9.87L148.20 9.87L148.20 9.87Q147.38 10.92 145.72 11.70L145.72 11.70L145.72 11.70Q144.07 12.48 141.84 12.48L141.84 12.48L141.84 12.48Q141.34 12.17 141.34 11.86L141.34 11.86L141.34 11.86Q141.34 11.54 141.76 11.35L141.76 11.35L141.76 11.35Q144.22 10.22 145.27 5.99L145.27 5.99L145.27 5.99Q146.33 1.75 146.33-6.86L146.33-6.86L146.25-12.32L146.13-14.98L146.13-14.98Q146.13-15.33 145.04-15.48L145.04-15.48L145.04-15.48Q143.64-15.48 142.68-14.57L142.68-14.57L142.68-14.57Q141.73-13.65 141.38-12.17L141.38-12.17L141.38-12.17Q140.75-9.79 140.75-8.05L140.75-8.05L140.75-8.05Q140.75-6.32 141.32-4.99L141.32-4.99L141.32-4.99Q141.88-3.67 143.29-3.67L143.29-3.67L143.29-3.67Q143.68-3.67 144.01-3.82L144.01-3.82L144.01-3.82Q144.34-3.98 144.46-3.98L144.46-3.98L144.46-3.98Q144.85-3.98 144.85-3.20L144.85-3.20L144.85-3.20Q144.85-2.42 144.73-1.93L144.73-1.93L144.73-1.93Q144.61-1.44 144.26-0.86L144.26-0.86L144.26-0.86Q143.48 0.43 141.22 0.43L141.22 0.43L141.22 0.43Q138.96 0.43 137.98-1.21L137.98-1.21L137.98-1.21Q136.97-2.89 136.81-4.21L136.81-4.21L136.81-4.21Q136.58-6.20 136.58-6.83L136.58-6.83L136.58-6.83Q136.58-7.45 136.60-7.82L136.60-7.82L136.60-7.82Q136.62-8.19 136.79-9.30L136.79-9.30L136.79-9.30Q136.97-10.41 137.26-11.41L137.26-11.41L137.26-11.41Q137.55-12.40 138.18-13.63L138.18-13.63L138.18-13.63Q138.80-14.86 139.66-15.74ZM162.71-27.77L162.71-27.77L168.32-27.46L168.32-27.46Q172.07-27.46 173.71-28.35L173.71-28.35L173.71-28.35Q173.94-28.51 174.12-28.51L174.12-28.51L174.12-28.51Q174.29-28.51 174.29-27.96L174.29-27.96L174.29-27.96Q174.29-27.42 173.63-26.17L173.63-26.17L173.63-26.17Q172.65-24.26 170.82-24.26L170.82-24.26L168.68-24.30L168.68-24.30Q168.36-24.30 168.28-23.95L168.28-23.95L168.28-23.95Q168.01-18.21 168.01-11.56L168.01-11.56L168.01-11.56Q168.01-4.91 168.56-1.56L168.56-1.56L168.56-1.36L168.56-1.36Q168.56-0.39 166.71 0.20L166.71 0.20L166.71 0.20Q164.85 0.78 163.22 0.78L163.22 0.78L163.22 0.78Q162.44 0.78 162.44 0.35L162.44 0.35L162.44 0.35Q162.44 0.23 162.55-0.20L162.55-0.20L162.55-0.20Q162.98-1.05 163.31-8.50L163.31-8.50L163.31-8.50Q163.64-15.95 163.64-19.73L163.64-19.73L163.57-23.98L163.57-23.98Q163.57-24.22 163.33-24.26L163.33-24.26L163.33-24.26Q162.51-24.41 161.46-24.41L161.46-24.41L161.46-24.41Q159.35-24.41 158.34-23.56L158.34-23.56L158.34-23.56Q158.07-23.36 157.81-23.36L157.81-23.36L157.81-23.36Q157.56-23.36 157.56-23.67L157.56-23.67L157.56-23.67Q157.56-24.14 158.05-24.96L158.05-24.96L158.05-24.96Q158.53-25.78 159.08-26.36L159.08-26.36L159.08-26.36Q160.41-27.77 162.71-27.77ZM175.93-14.70L175.93-14.70L175.93-14.70Q174.92-14.66 174.47-14.64L174.47-14.64L174.47-14.64Q174.02-14.63 174.02-14.86L174.02-14.86L174.02-14.86Q174.02-15.09 174.25-15.33L174.25-15.33L174.25-15.33Q176.75-17.63 182.68-17.63L182.68-17.63L182.68-17.63Q184.70-17.63 185.87-17.28L185.87-17.28L186.26-17.16L186.26-17.16Q186.73-16.96 186.73-16.73L186.73-16.73L186.73-16.73Q186.73-16.54 186.46-16.42L186.46-16.42L186.46-16.42Q185.41-16.11 184.43-15.42L184.43-15.42L184.43-15.42Q183.46-14.74 183.46-14.47L183.46-14.47L183.69-14.20L183.69-14.20Q184.94-13.49 185.62-11.97L185.62-11.97L185.62-11.97Q186.30-10.45 186.38-9.28L186.38-9.28L186.46-8.07L186.46-8.07Q186.46-4.21 184.31-1.72L184.31-1.72L184.31-1.72Q182.17 0.78 178.46 0.78L178.46 0.78L178.46 0.78Q176.59 0.78 175.23 0.12L175.23 0.12L175.23 0.12Q173.86-0.55 173.22-1.38L173.22-1.38L173.22-1.38Q172.58-2.22 172.19-3.28L172.19-3.28L172.19-3.28Q171.72-4.72 171.72-6.26L171.72-6.26L171.72-6.26Q171.72-7.80 172.24-9.36L172.24-9.36L172.24-9.36Q172.77-10.92 173.45-11.66L173.45-11.66L173.45-11.66Q174.14-12.40 174.99-12.87L174.99-12.87L174.99-12.87Q176.09-13.46 176.75-13.46L176.75-13.46L176.75-13.46Q177.41-13.46 177.41-13.18L177.41-13.18L177.18-12.79L177.18-12.79Q176.32-11.78 175.95-10.14L175.95-10.14L175.95-10.14Q175.58-8.50 175.58-7.23L175.58-7.23L175.58-7.23Q175.58-5.97 175.89-4.72L175.89-4.72L175.89-4.72Q176.20-3.47 176.59-2.87L176.59-2.87L176.59-2.87Q176.98-2.26 177.49-1.95L177.49-1.95L177.49-1.95Q178.23-1.48 179.05-1.48L179.05-1.48L179.05-1.48Q179.87-1.48 180.65-2.13L180.65-2.13L180.65-2.13Q181.43-2.77 181.78-3.82L181.78-3.82L181.78-3.82Q182.48-5.77 182.48-7.84L182.48-7.84L182.48-7.84Q182.48-11.12 180.82-12.91L180.82-12.91L180.82-12.91Q179.17-14.70 175.93-14.70ZM192.31-14.70L192.31-14.70L192.31-14.70Q191.30-14.66 190.85-14.64L190.85-14.64L190.85-14.64Q190.40-14.63 190.40-14.86L190.40-14.86L190.40-14.86Q190.40-15.09 190.63-15.33L190.63-15.33L190.63-15.33Q193.13-17.63 199.06-17.63L199.06-17.63L199.06-17.63Q201.08-17.63 202.25-17.28L202.25-17.28L202.64-17.16L202.64-17.16Q203.11-16.96 203.11-16.73L203.11-16.73L203.11-16.73Q203.11-16.54 202.84-16.42L202.84-16.42L202.84-16.42Q201.79-16.11 200.81-15.42L200.81-15.42L200.81-15.42Q199.84-14.74 199.84-14.47L199.84-14.47L200.07-14.20L200.07-14.20Q201.32-13.49 202.00-11.97L202.00-11.97L202.00-11.97Q202.68-10.45 202.76-9.28L202.76-9.28L202.84-8.07L202.84-8.07Q202.84-4.21 200.69-1.72L200.69-1.72L200.69-1.72Q198.55 0.78 194.84 0.78L194.84 0.78L194.84 0.78Q192.97 0.78 191.61 0.12L191.61 0.12L191.61 0.12Q190.24-0.55 189.60-1.38L189.60-1.38L189.60-1.38Q188.96-2.22 188.56-3.28L188.56-3.28L188.56-3.28Q188.10-4.72 188.10-6.26L188.10-6.26L188.10-6.26Q188.10-7.80 188.62-9.36L188.62-9.36L188.62-9.36Q189.15-10.92 189.83-11.66L189.83-11.66L189.83-11.66Q190.52-12.40 191.37-12.87L191.37-12.87L191.37-12.87Q192.47-13.46 193.13-13.46L193.13-13.46L193.13-13.46Q193.79-13.46 193.79-13.18L193.79-13.18L193.56-12.79L193.56-12.79Q192.70-11.78 192.33-10.14L192.33-10.14L192.33-10.14Q191.96-8.50 191.96-7.23L191.96-7.23L191.96-7.23Q191.96-5.97 192.27-4.72L192.27-4.72L192.27-4.72Q192.58-3.47 192.97-2.87L192.97-2.87L192.97-2.87Q193.36-2.26 193.87-1.95L193.87-1.95L193.87-1.95Q194.61-1.48 195.43-1.48L195.43-1.48L195.43-1.48Q196.25-1.48 197.03-2.13L197.03-2.13L197.03-2.13Q197.81-2.77 198.16-3.82L198.16-3.82L198.16-3.82Q198.86-5.77 198.86-7.84L198.86-7.84L198.86-7.84Q198.86-11.12 197.20-12.91L197.20-12.91L197.20-12.91Q195.55-14.70 192.31-14.70ZM209.35-22.31L209.35-22.31L209.12-8.00L209.12-8.00Q209.12-1.29 209.55 0.04L209.55 0.04L209.55 0.04Q209.66 0.27 209.66 0.51L209.66 0.51L209.66 0.51Q209.66 0.97 208.53 0.97L208.53 0.97L208.53 0.97Q207.40 0.97 206.02 0.41L206.02 0.41L206.02 0.41Q204.63-0.16 204.63-1.05L204.63-1.05L204.63-1.05Q205.41-6.51 205.41-15.64L205.41-15.64L205.26-21.61L205.26-21.61Q205.18-22.70 204.81-23.48L204.81-23.48L204.81-23.48Q204.44-24.26 204.09-24.49L204.09-24.49L203.78-24.69L203.78-24.69Q203.50-24.84 203.50-25.04L203.50-25.04L203.50-25.04Q203.50-25.58 205.20-26.38L205.20-26.38L205.20-26.38Q206.90-27.18 208.49-27.18L208.49-27.18L208.49-27.18Q209.12-27.18 209.20-26.75L209.20-26.75L209.20-26.75Q209.35-25.74 209.35-22.31ZM223.86-5.34L223.86-5.34L223.86-5.34Q223.86-3.67 223.22-2.42L223.22-2.42L223.22-2.42Q222.57-1.17 221.75-0.58L221.75-0.58L221.75-0.58Q220.94 0 219.80 0.35L219.80 0.35L219.80 0.35Q218.32 0.82 217.11 0.82L217.11 0.82L217.11 0.82Q214.58 0.82 212.90-0.18L212.90-0.18L212.90-0.18Q211.22-1.17 211.22-3.35L211.22-3.35L211.22-3.35Q211.22-4.64 211.93-5.46L211.93-5.46L211.93-5.46Q213.02-6.67 214.54-6.67L214.54-6.67L214.54-6.67Q215.01-6.67 215.01-6.24L215.01-6.24L215.01-6.24Q215.01-6.20 214.83-5.64L214.83-5.64L214.83-5.64Q214.66-5.07 214.66-4.21L214.66-4.21L214.66-4.21Q214.66-3.35 215.34-2.69L215.34-2.69L215.34-2.69Q216.02-2.03 217.00-2.03L217.00-2.03L217.00-2.03Q217.97-2.03 218.56-2.36L218.56-2.36L218.56-2.36Q219.14-2.69 219.38-3.20L219.38-3.20L219.38-3.20Q219.73-3.90 219.73-4.52L219.73-4.52L219.73-4.52Q219.73-5.66 218.59-6.47L218.59-6.47L218.59-6.47Q217.46-7.29 216.10-7.76L216.10-7.76L216.10-7.76Q214.73-8.23 213.60-9.32L213.60-9.32L213.60-9.32Q212.47-10.41 212.47-12.05L212.47-12.05L212.47-12.05Q212.47-14.86 214.25-16.26L214.25-16.26L214.25-16.26Q216.02-17.67 219.06-17.67L219.06-17.67L219.06-17.67Q220.39-17.67 221.85-17.30L221.85-17.30L221.85-17.30Q223.31-16.93 223.31-16.05L223.31-16.05L223.31-16.05Q223.31-15.17 223.02-14.43L223.02-14.43L223.02-14.43Q222.73-13.69 222.30-13.69L222.30-13.69L222.30-13.69Q222.07-13.69 221.99-13.86L221.99-13.86L221.99-13.86Q221.91-14.04 221.72-14.27L221.72-14.27L221.72-14.27Q221.52-14.51 220.78-14.88L220.78-14.88L220.78-14.88Q220.04-15.25 219.51-15.25L219.51-15.25L219.51-15.25Q218.99-15.25 218.81-15.23L218.81-15.23L218.81-15.23Q218.63-15.21 218.21-15.11L218.21-15.11L218.21-15.11Q217.78-15.02 217.43-14.82L217.43-14.82L217.43-14.82Q216.53-14.31 216.53-13.34L216.53-13.34L216.53-13.34Q216.53-12.71 216.80-12.42L216.80-12.42L216.80-12.42Q217.07-12.13 217.23-11.97L217.23-11.97L217.23-11.97Q217.39-11.82 217.78-11.60L217.78-11.60L217.78-11.60Q218.17-11.39 218.32-11.31L218.32-11.31L218.32-11.31Q218.48-11.23 219.02-10.98L219.02-10.98L219.02-10.98Q219.57-10.72 219.73-10.65L219.73-10.65L219.73-10.65Q223.86-8.70 223.86-5.34Z" fill="#ccc"></path></g></g><style>text {
  font-size: 64px;
  font-family: Arial Black;
  dominant-baseline: central;
  text-anchor: middle;
}</style></svg>